<svg xmlns="http://www.w3.org/2000/svg" viewBox="0 0 1024 1024" role="img" aria-labelledby="title desc">
  <title id="title">ChatGPT2API icon</title>
  <desc id="desc">A rounded square app icon with linked API brackets and a small reasoning star.</desc>
  <defs>
    <linearGradient id="bg" x1="176" y1="96" x2="848" y2="928" gradientUnits="userSpaceOnUse">
      <stop offset="0" stop-color="#0f766e"/>
      <stop offset="0.5" stop-color="#2563eb"/>
      <stop offset="1" stop-color="#111827"/>
    </linearGradient>
    <linearGradient id="link" x1="304" y1="356" x2="720" y2="668" gradientUnits="userSpaceOnUse">
      <stop offset="0" stop-color="#f8fafc"/>
      <stop offset="1" stop-color="#dbeafe"/>
    </linearGradient>
    <filter id="softShadow" x="-20%" y="-20%" width="140%" height="140%">
      <feDropShadow dx="0" dy="24" stdDeviation="26" flood-color="#000000" flood-opacity="0.26"/>
    </filter>
  </defs>

  <g transform="translate(512 512) scale(0.82) translate(-512 -512)">
  <rect width="1024" height="1024" rx="224" fill="url(#bg)"/>
  <circle cx="812" cy="214" r="72" fill="#22c55e" opacity="0.2"/>
  <circle cx="206" cy="824" r="96" fill="#38bdf8" opacity="0.16"/>

  <g filter="url(#softShadow)">
    <path d="M246 512c0-92 74-166 166-166h86v96h-86c-39 0-70 31-70 70s31 70 70 70h86v96h-86c-92 0-166-74-166-166Z" fill="url(#link)"/>
    <path d="M526 346h86c92 0 166 74 166 166s-74 166-166 166h-86v-96h86c39 0 70-31 70-70s-31-70-70-70h-86v-96Z" fill="url(#link)"/>
    <rect x="416" y="464" width="192" height="96" rx="34" fill="#facc15"/>
  </g>

  <path d="M512 204l44 92h102l-78 62 30 98-98-58-98 58 30-98-78-62h102l44-92Z" fill="#facc15"/>
  <path d="M362 792c42-42 92-62 150-62s108 20 150 62c-42 42-92 62-150 62s-108-20-150-62Z" fill="#f8fafc" opacity="0.94"/>
  <path d="M448 792h128" stroke="#2563eb" stroke-width="42" stroke-linecap="round"/>
  </g>
</svg>
